<svg xmlns="http://www.w3.org/2000/svg" width="73.86" height="56.874">
  <g id="Barcode" data-name="Barcode" transform="translate(-8.522 -17.045)" fill="none" stroke="#fff" stroke-linecap="round" stroke-linejoin="round" stroke-width="5.682">
    <path id="LeftBracket" data-name="LeftBracket" d="M22.726 19.885l-6.534.059a4.9 4.9 0 00-4.829 5.126v40.884a4.894 4.894 0 004.829 5.124l6.534-.059"/>
    <path id="Line1" data-name="Line1" transform="translate(22.726 34.089)" d="M0 0v22.726"/>
    <path id="Line2" data-name="Line2" transform="translate(34.089 28.408)" d="M0 0v34.089"/>
    <path id="Line3" data-name="Line3" transform="translate(45.452 31.248)" d="M0 0v28.408"/>
    <path id="Line4" data-name="Line4" transform="translate(56.815 28.408)" d="M0 0v34.089"/>
    <path id="Line5" data-name="Line5" transform="translate(68.178 34.089)" d="M0 0v22.726"/>
    <path id="RightBracket" data-name="RightBracket" d="M68.178 71.078l6.237-.059a5.149 5.149 0 005.126-5.126V25.011a5.149 5.149 0 00-5.126-5.126l-6.237.059"/>
  </g>
</svg>