<svg xmlns="http://www.w3.org/2000/svg" width="77.86" height="73.406" viewBox="0 0 77.86 73.406">
  <path id="Inventory" d="M73.86,60.5v2.478c0,2.053-1.378,3.718-3.077,3.718H69.757L66.408,95.008c-.433,3.663-3.03,6.384-6.093,6.384H13.545c-3.063,0-5.66-2.721-6.093-6.384L4.1,66.695H3.078C1.378,66.695,0,65.03,0,62.977V60.5c0-2.053,1.378-3.718,3.078-3.718h8.635L25.4,34.039a3.669,3.669,0,0,1,5.732-1.093,5.654,5.654,0,0,1,.905,6.924L21.86,56.781H52L41.818,39.87a5.654,5.654,0,0,1,.905-6.924,3.668,3.668,0,0,1,5.732,1.093L62.147,56.781h8.635C72.482,56.781,73.86,58.446,73.86,60.5ZM40.008,87.761V70.412c0-2.053-1.378-3.718-3.078-3.718s-3.077,1.664-3.077,3.718V87.761c0,2.053,1.378,3.718,3.077,3.718S40.008,89.814,40.008,87.761Zm14.362,0V70.412c0-2.053-1.378-3.718-3.078-3.718s-3.077,1.664-3.077,3.718V87.761c0,2.053,1.378,3.718,3.077,3.718S54.369,89.814,54.369,87.761Zm-28.723,0V70.412c0-2.053-1.378-3.718-3.077-3.718s-3.078,1.664-3.078,3.718V87.761c0,2.053,1.378,3.718,3.078,3.718S25.646,89.814,25.646,87.761Z" transform="translate(2 -29.986)" fill="none" stroke="#6e7faa" stroke-width="4"/>
</svg>
