<svg xmlns="http://www.w3.org/2000/svg" width="60.717" height="73.806" viewBox="0 0 60.717 73.806">
  <path id="Recipies" d="M28.345,2.071c.109.641,2.2,12.884,2.2,17.561,0,7.131-3.79,12.216-9.394,14.261l1.759,32.462A3.28,3.28,0,0,1,19.633,69.8H10.907a3.281,3.281,0,0,1-3.272-3.449L9.394,33.893C3.777,31.848,0,26.749,0,19.632c0-4.69,2.086-16.92,2.2-17.561C2.631-.7,8.371-.737,8.726,2.221V21.472c.177.464,2.059.436,2.181,0C11.1,18.023,11.984,2.494,12,2.139c.45-2.836,6.094-2.836,6.531,0,.027.368.9,15.884,1.091,19.333.123.436,2.018.464,2.181,0V2.221c.354-2.945,6.108-2.918,6.544-.15ZM44.6,41.023,42.552,66.26A3.271,3.271,0,0,0,45.81,69.8h7.635a3.264,3.264,0,0,0,3.272-3.272V3.271A3.273,3.273,0,0,0,53.445,0C42.2,0,23.26,24.335,44.6,41.023Z" transform="translate(2 2.001)" fill="none" stroke="#6e7faa" stroke-width="4"/>
</svg>
